<?xml version="1.0" encoding="UTF-8"?>
<svg id="Layer_2" data-name="Layer 2" xmlns="http://www.w3.org/2000/svg" xmlns:xlink="http://www.w3.org/1999/xlink" viewBox="0 0 632.643 632.523">
  <defs>
    <style>
      .cls-1 {
        fill: url(#linear-gradient-2);
      }

      .cls-2 {
        fill: #3d3d3d;
      }

      .cls-3 {
        fill: #efefef;
      }

      .cls-4 {
        fill: url(#linear-gradient-3);
      }

      .cls-5 {
        fill: url(#linear-gradient);
      }

      .cls-6 {
        fill: url(#linear-gradient-4);
      }
    </style>
    <linearGradient id="linear-gradient" x1="316.166" y1="587.551" x2="316.166" y2="456.544" gradientTransform="translate(-130.939 316.286) rotate(-45)" gradientUnits="userSpaceOnUse">
      <stop offset=".262" stop-color="#3d3d3d"/>
      <stop offset=".346" stop-color="#4a3838"/>
      <stop offset=".502" stop-color="#6d2d2d"/>
      <stop offset=".713" stop-color="#a71b1b"/>
      <stop offset=".97" stop-color="#f50303"/>
      <stop offset="1" stop-color="red"/>
    </linearGradient>
    <linearGradient id="linear-gradient-2" x1="355.45" y1="526.936" x2="355.45" y2="395.929" gradientTransform="translate(748.5 245.477) rotate(135)" gradientUnits="userSpaceOnUse">
      <stop offset=".274" stop-color="#3d3d3d"/>
      <stop offset=".35" stop-color="#443a3a"/>
      <stop offset=".464" stop-color="#593434"/>
      <stop offset=".603" stop-color="#7a2929"/>
      <stop offset=".76" stop-color="#a91a1a"/>
      <stop offset=".93" stop-color="#e40808"/>
      <stop offset="1" stop-color="red"/>
    </linearGradient>
    <linearGradient id="linear-gradient-3" x1="471.722" y1="444.662" x2="471.722" y2="313.655" gradientTransform="translate(105.204 -140.017) rotate(45)" xlink:href="#linear-gradient"/>
    <linearGradient id="linear-gradient-4" x1="199.725" y1="669.825" x2="199.725" y2="538.818" gradientTransform="translate(176.014 739.422) rotate(-135)" xlink:href="#linear-gradient"/>
  </defs>
  <g id="Layer_1-2" data-name="Layer 1">
    <g>
      <path class="cls-3" d="M466.954,594.793c.033-9.32,.648-18.233-.078-27.035-.656-7.951,2.178-13.219,7.795-18.707,26.793-26.172,53.11-52.832,79.596-79.318,.362-.362,.859-.661,1.062-1.096,.855-1.833,2.506-3.862,2.215-5.531-.433-2.486-3.261-1.822-5.23-1.823-28.248-.015-56.496,.003-84.744,.012-6.314,.002-8.194,1.874-8.194,8.204,.003,42.169-.013,84.338,.046,126.506,.007,4.645-1.299,8.461-4.807,11.689-4.365,4.015-8.425,8.36-12.635,12.545-3.177,3.158-6.972,4.791-11.504,4.759-7.573-.053-15.147-.028-22.721-.018-4.383,.006-8.069-1.469-11.212-4.628-16.679-16.761-33.404-33.477-50.157-50.164-3.139-3.127-4.699-6.786-4.692-11.19,.076-45.544,.139-91.087,.214-136.631,.001-.898,.11-1.796,.2-3.187,10.244,6.59,20.368,6.78,30.563,.549-.135,42.927-.252,85.791-.433,128.653-.019,4.538,1.357,8.266,4.636,11.5,11.076,10.927,22.045,21.963,33.029,32.982,5.154,5.17,14.804,6.136,19.7-.369,1.544-2.052,2.764-4.943,2.779-7.459,.19-30.082,.091-60.167,.139-90.25,.027-17.089,.153-34.178,.301-51.267,.062-7.235,2.573-9.65,9.921-9.66,38.079-.052,76.159-.09,114.238-.102,8.898-.003,17.796,.207,26.693,.131,5.006-.043,9.146-1.988,11.415-6.76,2.59-5.448,1.926-10.787-2.17-15.002-11.769-12.112-23.748-24.025-35.883-35.769-1.701-1.646-4.74-2.686-7.163-2.695-37.868-.14-75.737-.068-113.606-.036-7.369,.006-14.742,.223-22.104,.006-4.045-.119-6.975,1.396-9.717,4.177-10.922,11.076-21.951,22.047-32.951,33.047-6.986,6.987-16.472,7.946-24.856,2.793-6.68-4.105-5.926-12.534-2.043-16.462,17.195-17.395,34.45-34.735,51.975-51.794,2.048-1.994,5.899-2.98,8.923-2.998,36.947-.216,73.896-.136,110.845-.195,14.016-.023,28.032-.264,42.048-.283,3.853-.005,7.374,1.213,10.209,4.052,17.215,17.239,34.454,34.453,51.666,51.694,2.699,2.703,4.09,6.057,4.123,9.854,.071,8.188,.045,16.376,.001,24.564-.02,3.713-1.317,7.035-3.924,9.645-50.774,50.829-101.578,101.627-152.381,152.426-.133,.133-.336,.196-1.126,.642Z"/>
      <path class="cls-3" d="M572.85,402.363c-35.068-.135-69.232-.275-103.397-.394-12.588-.044-25.176,.009-37.763-.093-2.227-.018-3.816,.661-5.374,2.253-6.797,6.949-13.677,13.82-20.617,20.626-1.661,1.629-2.329,3.344-2.335,5.67-.114,47.074-.296,94.147-.469,141.221-.002,.586-.072,1.172-.134,2.122-.817-.613-1.412-.964-1.89-1.433-5.552-5.447-11.104-10.895-16.618-16.381-2.558-2.545-3.936-5.578-3.922-9.291,.167-44.106,.278-88.212,.494-132.318,.006-1.24,.701-2.769,1.582-3.665,8.824-8.975,17.78-17.82,26.635-26.765,2.008-2.028,4.264-2.886,7.104-2.883,44.11,.041,88.219,.018,132.329,.08,1.429,.002,3.274,.324,4.219,1.232,6.612,6.354,13.038,12.901,20.156,20.019Z"/>
      <path class="cls-3" d="M468.397,468.733c25.038,.063,50.782,.129,76.373,.194-25.482,25.482-51.052,51.052-76.436,76.436,.021-25.505,.042-50.979,.063-76.63Z"/>
      <path class="cls-2" d="M536.672,536.046c-29.555,29.555-59.15,59.072-88.621,88.711-4.06,4.083-8.694,6.869-14.288,7.159-9.876,.512-19.803,.857-29.663-.23-4.944-.545-9.122-3.027-12.678-6.596-16.663-16.727-33.367-33.413-50.073-50.098-4.151-4.146-6.257-9.05-6.253-14.976,.031-51.305,.049-102.609-.05-153.914-.013-6.855,2.346-12.366,7.161-17.144,15.596-15.476,31.149-30.998,46.597-46.621,5.226-5.285,11.209-7.667,18.721-7.743,50.477-.507,100.954-.248,151.431-.361,6.112-.014,11.158,1.956,15.504,6.337,16.987,17.125,34.038,34.188,51.18,51.158,4.769,4.722,6.901,10.332,6.964,16.857,.071,7.357,.025,14.716,.02,22.074-.004,6.265-2.049,11.569-6.601,16.101-29.838,29.706-59.578,59.511-89.35,89.283Zm33.235-136.93c-3.248-3.256-6.867-6.225-9.664-9.831-5.168-6.663-11.537-8.448-19.897-8.36-41.08,.43-82.167,.194-123.251,.168-2.716-.002-5.182,.301-7.26,2.4-9.131,9.222-18.334,18.374-27.532,27.53-.84,.837-1.214,1.676-1.217,2.919-.109,44.451-.263,88.902-.428,133.353-.006,1.565,.439,3.002,1.03,4.392,.394,.927,.859,1.92,1.564,2.603,6.515,6.311,12.692,12.972,19.515,18.966,3.778,5.055,8.337,9.413,13.158,13.374,5.811,4.773,12.967,3.192,17.081-3.178,.588,3.458-.702,6.245-2.873,8.866-4.633,5.593-14.072,5.473-19.492,.045-10.977-10.993-21.921-22.019-32.982-32.927-3.255-3.211-4.729-6.891-4.684-11.414,.148-14.918,.306-29.837,.249-44.754-.106-27.97-.36-55.94-.549-83.373-8.265,5.15-17.544,5.666-27.019,.67-2.964-1.563-2.916-1.667-2.922,1.76-.074,45.268-.136,90.537-.235,135.805-.01,4.607,1.535,8.406,4.827,11.679,16.666,16.577,33.288,33.2,49.865,49.866,3.117,3.134,6.741,4.695,11.109,4.693,7.664-.003,15.329-.015,22.993,.015,4.501,.018,8.255-1.662,11.405-4.812,3.829-3.83,7.468-7.879,11.541-11.43,4.449-3.879,5.857-8.516,5.838-14.278-.139-41.797-.08-83.596-.074-125.393,0-5.501,2.052-7.544,7.532-7.55,16.071-.018,32.143-.027,48.214-.032,12.468-.004,24.935-.005,37.403,.013,1.893,.003,4.181-.5,5.064,1.798,.843,2.192-.676,3.824-2.097,5.32-.352,.37-.721,.724-1.083,1.085-28.542,28.543-57.087,57.082-85.612,85.642-.874,.875-1.973,1.504-1.934,3.198,.183,7.966,.162,15.936,.214,23.905,.026,4.021,.054,8.042,.084,12.553,.636-.574,.919-.808,1.177-1.066,50.505-50.513,101.008-101.028,151.507-151.547,2.847-2.848,4.293-6.31,4.302-10.344,.017-7.767-.013-15.534,.03-23.301,.024-4.48-1.559-8.209-4.734-11.375-16.861-16.816-33.717-33.638-50.498-50.534-2.732-2.751-5.965-4.102-9.651-4.467-1.907-.189-3.864,.207-5.799,.209-48.643,.046-97.287,.121-145.93,.042-5.556-.009-9.828,1.663-13.773,5.684-16.031,16.339-32.317,32.426-48.489,48.626-5.23,5.239-4.446,13.221,1.613,17.03,8.296,5.216,17.751,4.148,24.703-2.807,10.981-10.986,21.993-21.94,32.901-32.998,2.729-2.767,5.65-4.207,9.675-4.179,17.209,.121,34.42-.039,51.63-.055,27.899-.027,55.798-.007,83.697-.054,2.903-.005,5.482,.771,7.503,2.778,11.97,11.878,23.98,23.72,35.751,35.794,3.599,3.692,4.61,8.456,2.738,13.519-1.799,4.869-5.186,7.671-10.479,7.946,.105-.967,.773-1.581,1.33-2.306,3.468-4.52,4.008-11.031,.77-14.368-5.804-5.982-11.89-11.689-17.859-17.511Zm-101.611,69.455c-.027,25.776-.054,51.25-.081,77.174,25.779-25.779,51.384-51.384,76.939-76.939-25.684-.079-51.476-.158-76.858-.235Z"/>
      <path class="cls-5" d="M585.666,433.303c-7.094,.089-14.188,.249-21.282,.256-39.866,.037-79.733,.033-119.599,.052-9.075,.004-11.082,2.046-11.239,11.091-.563,32.54-.208,65.084-.395,97.626-.079,13.708-.098,27.416-.144,41.125-4.114,6.37-11.27,7.951-17.081,3.178-4.821-3.96-9.381-8.318-13.158-13.374,.068-.289,.194-.579,.195-.869,.068-17.934,.107-35.869,.188-53.803,.132-29.525,.304-59.05,.405-88.576,.007-2.092,.65-3.64,2.145-5.11,7.067-6.951,14.078-13.961,21.027-21.03,1.39-1.414,2.795-2.071,4.805-2.06,36.044,.188,72.088,.298,108.131,.461,10.754,.049,22.568,.512,33.605,.107-.903-1.089,8.693,8.269,14.497,14.251,3.238,3.337,2.698,9.849-.77,14.368-.557,.726-1.225,1.339-1.33,2.306Z"/>
    </g>
    <g>
      <path class="cls-3" d="M165.689,37.609c-.033,9.32-.648,18.233,.078,27.035,.656,7.951-2.178,13.219-7.795,18.707-26.793,26.172-53.11,52.832-79.596,79.318-.362,.362-.859,.661-1.062,1.096-.855,1.833-2.506,3.862-2.215,5.531,.433,2.486,3.261,1.822,5.23,1.823,28.248,.015,56.496-.003,84.744-.012,6.314-.002,8.194-1.874,8.194-8.204-.003-42.169,.013-84.338-.046-126.506-.007-4.645,1.299-8.461,4.807-11.689,4.365-4.015,8.425-8.36,12.635-12.545,3.177-3.158,6.972-4.791,11.504-4.759,7.573,.053,15.147,.028,22.721,.018,4.383-.006,8.069,1.469,11.212,4.628,16.679,16.761,33.404,33.477,50.157,50.164,3.139,3.127,4.699,6.786,4.692,11.19-.076,45.544-.139,91.087-.214,136.631-.001,.898-.11,1.796-.2,3.187-10.244-6.59-20.368-6.78-30.563-.549,.135-42.927,.252-85.791,.433-128.653,.019-4.538-1.357-8.266-4.636-11.5-11.076-10.927-22.045-21.963-33.029-32.982-5.154-5.17-14.804-6.136-19.7,.369-1.544,2.052-2.764,4.943-2.779,7.459-.19,30.082-.091,60.167-.139,90.25-.027,17.089-.153,34.178-.301,51.267-.062,7.235-2.573,9.65-9.921,9.66-38.079,.052-76.159,.09-114.238,.102-8.898,.003-17.796-.207-26.693-.131-5.006,.043-9.146,1.988-11.415,6.76-2.59,5.448-1.926,10.787,2.17,15.002,11.769,12.112,23.748,24.025,35.883,35.769,1.701,1.646,4.74,2.686,7.163,2.695,37.868,.14,75.737,.068,113.606,.036,7.369-.006,14.742-.223,22.104-.006,4.045,.119,6.975-1.396,9.717-4.177,10.922-11.076,21.951-22.047,32.951-33.047,6.986-6.987,16.472-7.946,24.856-2.793,6.68,4.105,5.926,12.534,2.043,16.462-17.195,17.395-34.45,34.735-51.975,51.794-2.048,1.994-5.899,2.98-8.923,2.998-36.947,.216-73.896,.136-110.845,.195-14.016,.023-28.032,.264-42.048,.283-3.853,.005-7.374-1.213-10.209-4.052-17.215-17.239-34.454-34.453-51.666-51.694-2.699-2.703-4.09-6.057-4.123-9.854-.071-8.188-.045-16.376-.001-24.564,.02-3.713,1.317-7.035,3.924-9.645C62.956,139.848,113.76,89.05,164.563,38.25c.133-.133,.336-.196,1.126-.642Z"/>
      <path class="cls-3" d="M59.793,230.039c35.068,.135,69.232,.275,103.397,.394,12.588,.044,25.176-.009,37.763,.093,2.227,.018,3.816-.661,5.374-2.253,6.797-6.949,13.677-13.82,20.617-20.626,1.661-1.629,2.329-3.344,2.335-5.67,.114-47.074,.296-94.147,.469-141.221,.002-.586,.072-1.172,.134-2.122,.817,.613,1.412,.964,1.89,1.433,5.552,5.447,11.104,10.895,16.618,16.381,2.558,2.545,3.936,5.578,3.922,9.291-.167,44.106-.278,88.212-.494,132.318-.006,1.24-.701,2.769-1.582,3.665-8.824,8.975-17.78,17.82-26.635,26.765-2.008,2.028-4.264,2.886-7.104,2.883-44.11-.041-88.219-.018-132.329-.08-1.429-.002-3.274-.324-4.219-1.232-6.612-6.354-13.038-12.901-20.156-20.019Z"/>
      <path class="cls-3" d="M164.246,163.669c-25.038-.063-50.782-.129-76.373-.194l76.436-76.436c-.021,25.505-.042,50.979-.063,76.63Z"/>
      <path class="cls-2" d="M95.971,96.356c29.555-29.555,59.15-59.072,88.621-88.711,4.06-4.083,8.694-6.869,14.288-7.159,9.876-.512,19.803-.857,29.663,.23,4.944,.545,9.122,3.027,12.678,6.596,16.663,16.727,33.367,33.413,50.073,50.098,4.151,4.146,6.257,9.05,6.253,14.976-.031,51.305-.049,102.609,.05,153.914,.013,6.855-2.346,12.366-7.161,17.144-15.596,15.476-31.149,30.998-46.597,46.621-5.226,5.285-11.209,7.667-18.721,7.743-50.477,.507-100.954,.248-151.431,.361-6.112,.014-11.158-1.956-15.504-6.337-16.987-17.125-34.038-34.188-51.18-51.158C2.234,235.95,.102,230.339,.039,223.814c-.071-7.357-.025-14.716-.02-22.074,.004-6.265,2.049-11.569,6.601-16.101,29.838-29.706,59.578-59.511,89.35-89.283ZM62.736,233.285c3.248,3.256,6.867,6.225,9.664,9.831,5.168,6.663,11.537,8.448,19.897,8.36,41.08-.43,82.167-.194,123.251-.168,2.716,.002,5.182-.301,7.26-2.4,9.131-9.222,18.334-18.374,27.532-27.53,.84-.837,1.214-1.676,1.217-2.919,.109-44.451,.263-88.902,.428-133.353,.006-1.565-.439-3.002-1.03-4.392-.394-.927-.859-1.92-1.564-2.603-6.515-6.311-12.692-12.972-19.515-18.966-3.778-5.055-8.337-9.413-13.158-13.374-5.811-4.773-12.967-3.192-17.081,3.178-.588-3.458,.702-6.245,2.873-8.866,4.633-5.593,14.072-5.473,19.492-.045,10.977,10.993,21.921,22.019,32.982,32.927,3.255,3.211,4.729,6.891,4.684,11.414-.148,14.918-.306,29.837-.249,44.754,.106,27.97,.36,55.94,.549,83.373,8.265-5.15,17.544-5.666,27.019-.67,2.964,1.563,2.916,1.667,2.922-1.76,.074-45.268,.136-90.537,.235-135.805,.01-4.607-1.535-8.406-4.827-11.679-16.666-16.577-33.288-33.2-49.865-49.866-3.117-3.134-6.741-4.695-11.109-4.693-7.664,.003-15.329,.015-22.993-.015-4.501-.018-8.255,1.662-11.405,4.812-3.829,3.83-7.468,7.879-11.541,11.43-4.449,3.879-5.857,8.516-5.838,14.278,.139,41.797,.08,83.596,.074,125.393,0,5.501-2.052,7.544-7.532,7.55-16.071,.018-32.143,.027-48.214,.032-12.468,.004-24.935,.005-37.403-.013-1.893-.003-4.181,.5-5.064-1.798-.843-2.192,.676-3.824,2.097-5.32,.352-.37,.721-.724,1.083-1.085,28.542-28.543,57.087-57.082,85.612-85.642,.874-.875,1.973-1.504,1.934-3.198-.183-7.966-.162-15.936-.214-23.905-.026-4.021-.054-8.042-.084-12.553-.636,.574-.919,.808-1.177,1.066C113.17,89.579,62.666,140.093,12.167,190.612c-2.847,2.848-4.293,6.31-4.302,10.344-.017,7.767,.013,15.534-.03,23.301-.024,4.48,1.559,8.209,4.734,11.375,16.861,16.816,33.717,33.638,50.498,50.534,2.732,2.751,5.965,4.102,9.651,4.467,1.907,.189,3.864-.207,5.799-.209,48.643-.046,97.287-.121,145.93-.042,5.556,.009,9.828-1.663,13.773-5.684,16.031-16.339,32.317-32.426,48.489-48.626,5.23-5.239,4.446-13.221-1.613-17.03-8.296-5.216-17.751-4.148-24.703,2.807-10.981,10.986-21.993,21.94-32.901,32.998-2.729,2.767-5.65,4.207-9.675,4.179-17.209-.121-34.42,.039-51.63,.055-27.899,.027-55.798,.007-83.697,.054-2.903,.005-5.482-.771-7.503-2.778-11.97-11.878-23.98-23.72-35.751-35.794-3.599-3.692-4.61-8.456-2.738-13.519,1.799-4.869,5.186-7.671,10.479-7.946-.105,.967-.773,1.581-1.33,2.306-3.468,4.52-4.008,11.031-.77,14.368,5.804,5.982,11.89,11.689,17.859,17.511Zm101.611-69.455c.027-25.776,.054-51.25,.081-77.174l-76.939,76.939c25.684,.079,51.476,.158,76.858,.235Z"/>
      <path class="cls-1" d="M46.977,199.099c7.094-.089,14.188-.249,21.282-.256,39.866-.037,79.733-.033,119.599-.052,9.075-.004,11.082-2.046,11.239-11.091,.563-32.54,.208-65.084,.395-97.626,.079-13.708,.098-27.416,.144-41.125,4.114-6.37,11.27-7.951,17.081-3.178,4.821,3.96,9.381,8.318,13.158,13.374-.068,.289-.194,.579-.195,.869-.068,17.934-.107,35.869-.188,53.803-.132,29.525-.304,59.05-.405,88.576-.007,2.092-.65,3.64-2.145,5.11-7.067,6.951-14.078,13.961-21.027,21.03-1.39,1.414-2.795,2.071-4.805,2.06-36.044-.188-72.088-.298-108.131-.461-10.754-.049-22.568-.512-33.605-.107,.903,1.089-8.693-8.269-14.497-14.251-3.238-3.337-2.698-9.849,.77-14.368,.557-.726,1.225-1.339,1.33-2.306Z"/>
    </g>
    <g>
      <path class="cls-3" d="M37.729,466.833c9.32,.033,18.233,.648,27.035-.078,7.951-.656,13.219,2.178,18.707,7.795,26.172,26.793,52.832,53.11,79.318,79.596,.362,.362,.661,.859,1.096,1.062,1.833,.855,3.862,2.506,5.531,2.215,2.486-.433,1.822-3.261,1.823-5.23,.015-28.248-.003-56.496-.012-84.744-.002-6.314-1.874-8.194-8.204-8.194-42.169,.003-84.338-.013-126.506,.046-4.645,.007-8.461-1.299-11.689-4.807-4.015-4.365-8.36-8.425-12.545-12.635-3.158-3.177-4.791-6.972-4.759-11.504,.053-7.573,.028-15.147,.018-22.721-.006-4.383,1.469-8.069,4.628-11.212,16.761-16.679,33.477-33.404,50.164-50.157,3.127-3.139,6.786-4.699,11.19-4.692,45.544,.076,91.087,.139,136.631,.214,.898,.001,1.796,.11,3.187,.2-6.59,10.244-6.78,20.368-.549,30.563-42.927-.135-85.791-.252-128.653-.433-4.538-.019-8.266,1.357-11.5,4.636-10.927,11.076-21.963,22.045-32.982,33.029-5.17,5.154-6.136,14.804,.369,19.7,2.052,1.544,4.943,2.764,7.459,2.779,30.082,.19,60.167,.091,90.25,.139,17.089,.027,34.178,.153,51.267,.301,7.235,.062,9.65,2.573,9.66,9.921,.052,38.079,.09,76.159,.102,114.238,.003,8.898-.207,17.796-.131,26.693,.043,5.006,1.988,9.146,6.76,11.415,5.448,2.59,10.787,1.926,15.002-2.17,12.112-11.769,24.025-23.748,35.769-35.883,1.646-1.701,2.686-4.74,2.695-7.163,.14-37.868,.068-75.737,.036-113.606-.006-7.369-.223-14.742-.006-22.104,.119-4.045-1.396-6.975-4.177-9.717-11.076-10.922-22.047-21.951-33.047-32.951-6.987-6.986-7.946-16.472-2.793-24.856,4.105-6.68,12.534-5.926,16.462-2.043,17.395,17.195,34.735,34.45,51.794,51.975,1.994,2.048,2.98,5.899,2.998,8.923,.216,36.947,.136,73.896,.195,110.845,.023,14.016,.264,28.032,.283,42.048,.005,3.853-1.213,7.374-4.052,10.209-17.239,17.215-34.453,34.454-51.694,51.666-2.703,2.699-6.057,4.09-9.854,4.123-8.188,.071-16.376,.045-24.564,.001-3.713-.02-7.035-1.317-9.645-3.924-50.829-50.774-101.627-101.578-152.426-152.381-.133-.133-.196-.336-.642-1.126Z"/>
      <path class="cls-3" d="M230.159,572.73c.135-35.068,.275-69.232,.394-103.397,.044-12.588-.009-25.176,.093-37.763,.018-2.227-.661-3.816-2.253-5.374-6.949-6.797-13.82-13.677-20.626-20.617-1.629-1.661-3.344-2.329-5.67-2.335-47.074-.114-94.147-.296-141.221-.469-.586-.002-1.172-.072-2.122-.134,.613-.817,.964-1.412,1.433-1.89,5.447-5.552,10.895-11.104,16.381-16.618,2.545-2.558,5.578-3.936,9.291-3.922,44.106,.167,88.212,.278,132.318,.494,1.24,.006,2.769,.701,3.665,1.582,8.975,8.824,17.82,17.78,26.765,26.635,2.028,2.008,2.886,4.264,2.883,7.104-.041,44.11-.018,88.219-.08,132.329-.002,1.429-.324,3.274-1.232,4.219-6.354,6.612-12.901,13.038-20.019,20.156Z"/>
      <path class="cls-3" d="M163.789,468.277c-.063,25.038-.129,50.782-.194,76.373-25.482-25.482-51.052-51.052-76.436-76.436,25.505,.021,50.979,.042,76.63,.063Z"/>
      <path class="cls-2" d="M96.476,536.551c-29.555-29.555-59.072-59.15-88.711-88.621-4.083-4.06-6.869-8.694-7.159-14.288-.512-9.876-.857-19.803,.23-29.663,.545-4.944,3.027-9.122,6.596-12.678,16.727-16.663,33.413-33.367,50.098-50.073,4.146-4.151,9.05-6.257,14.976-6.253,51.305,.031,102.609,.049,153.914-.05,6.855-.013,12.366,2.346,17.144,7.161,15.476,15.596,30.998,31.149,46.621,46.597,5.285,5.226,7.667,11.209,7.743,18.721,.507,50.477,.248,100.954,.361,151.431,.014,6.112-1.956,11.158-6.337,15.504-17.125,16.987-34.188,34.038-51.158,51.18-4.722,4.769-10.332,6.901-16.857,6.964-7.357,.071-14.716,.025-22.074,.02-6.265-.004-11.569-2.049-16.101-6.601-29.706-29.838-59.511-59.578-89.283-89.35Zm136.93,33.235c3.256-3.248,6.225-6.867,9.831-9.664,6.663-5.168,8.448-11.537,8.36-19.897-.43-41.08-.194-82.167-.168-123.251,.002-2.716-.301-5.182-2.4-7.26-9.222-9.131-18.374-18.334-27.53-27.532-.837-.84-1.676-1.214-2.919-1.217-44.451-.109-88.902-.263-133.353-.428-1.565-.006-3.002,.439-4.392,1.03-.927,.394-1.92,.859-2.603,1.564-6.311,6.515-12.972,12.692-18.966,19.515-5.055,3.778-9.413,8.337-13.374,13.158-4.773,5.811-3.192,12.967,3.178,17.081-3.458,.588-6.245-.702-8.866-2.873-5.593-4.633-5.473-14.072-.045-19.492,10.993-10.977,22.019-21.921,32.927-32.982,3.211-3.255,6.891-4.729,11.414-4.684,14.918,.148,29.837,.306,44.754,.249,27.97-.106,55.94-.36,83.373-.549-5.15-8.265-5.666-17.544-.67-27.019,1.563-2.964,1.667-2.916-1.76-2.922-45.268-.074-90.537-.136-135.805-.235-4.607-.01-8.406,1.535-11.679,4.827-16.577,16.666-33.2,33.288-49.866,49.865-3.134,3.117-4.695,6.741-4.693,11.109,.003,7.664,.015,15.329-.015,22.993-.018,4.501,1.662,8.255,4.812,11.405,3.83,3.829,7.879,7.468,11.43,11.541,3.879,4.449,8.516,5.857,14.278,5.838,41.797-.139,83.596-.08,125.393-.074,5.501,0,7.544,2.052,7.55,7.532,.018,16.071,.027,32.143,.032,48.214,.004,12.468,.005,24.935-.013,37.403-.003,1.893,.5,4.181-1.798,5.064-2.192,.843-3.824-.676-5.32-2.097-.37-.352-.724-.721-1.085-1.083-28.543-28.542-57.082-57.087-85.642-85.612-.875-.874-1.504-1.973-3.198-1.934-7.966,.183-15.936,.162-23.905,.214-4.021,.026-8.042,.054-12.553,.084,.574,.636,.808,.919,1.066,1.177,50.513,50.505,101.028,101.008,151.547,151.507,2.848,2.847,6.31,4.293,10.344,4.302,7.767,.017,15.534-.013,23.301,.03,4.48,.024,8.209-1.559,11.375-4.734,16.816-16.861,33.638-33.717,50.534-50.498,2.751-2.732,4.102-5.965,4.467-9.651,.189-1.907-.207-3.864-.209-5.799-.046-48.643-.121-97.287-.042-145.93,.009-5.556-1.663-9.828-5.684-13.773-16.339-16.031-32.426-32.317-48.626-48.489-5.239-5.23-13.221-4.446-17.03,1.613-5.216,8.296-4.148,17.751,2.807,24.703,10.986,10.981,21.94,21.993,32.998,32.901,2.767,2.729,4.207,5.65,4.179,9.675-.121,17.209,.039,34.42,.055,51.63,.027,27.899,.007,55.798,.054,83.697,.005,2.903-.771,5.482-2.778,7.503-11.878,11.97-23.72,23.98-35.794,35.751-3.692,3.599-8.456,4.61-13.519,2.738-4.869-1.799-7.671-5.186-7.946-10.479,.967,.105,1.581,.773,2.306,1.33,4.52,3.468,11.031,4.008,14.368,.77,5.982-5.804,11.689-11.89,17.511-17.859Zm-69.455-101.611c-25.776-.027-51.25-.054-77.174-.081,25.779,25.779,51.384,51.384,76.939,76.939,.079-25.684,.158-51.476,.235-76.858Z"/>
      <path class="cls-4" d="M199.22,585.545c-.089-7.094-.249-14.188-.256-21.282-.037-39.866-.033-79.733-.052-119.599-.004-9.075-2.046-11.082-11.091-11.239-32.54-.563-65.084-.208-97.626-.395-13.708-.079-27.416-.098-41.125-.144-6.37-4.114-7.951-11.27-3.178-17.081,3.96-4.821,8.318-9.381,13.374-13.158,.289,.068,.579,.194,.869,.195,17.934,.068,35.869,.107,53.803,.188,29.525,.132,59.05,.304,88.576,.405,2.092,.007,3.64,.65,5.11,2.145,6.951,7.067,13.961,14.078,21.03,21.027,1.414,1.39,2.071,2.795,2.06,4.805-.188,36.044-.298,72.088-.461,108.131-.049,10.754-.512,22.568-.107,33.605,1.089-.903-8.269,8.693-14.251,14.497-3.337,3.238-9.849,2.698-14.368-.77-.726-.557-1.339-1.225-2.306-1.33Z"/>
    </g>
    <g>
      <path class="cls-3" d="M595.034,165.689c-9.32-.033-18.233-.648-27.035,.078-7.951,.656-13.219-2.178-18.707-7.795-26.172-26.793-52.832-53.11-79.318-79.596-.362-.362-.661-.859-1.096-1.062-1.833-.855-3.862-2.506-5.531-2.215-2.486,.433-1.822,3.261-1.823,5.23-.015,28.248,.003,56.496,.012,84.744,.002,6.314,1.874,8.194,8.204,8.194,42.169-.003,84.338,.013,126.506-.046,4.645-.007,8.461,1.299,11.689,4.807,4.015,4.365,8.36,8.425,12.545,12.635,3.158,3.177,4.791,6.972,4.759,11.504-.053,7.573-.028,15.147-.018,22.721,.006,4.383-1.469,8.069-4.628,11.212-16.761,16.679-33.477,33.404-50.164,50.157-3.127,3.139-6.786,4.699-11.19,4.692-45.544-.076-91.087-.139-136.631-.214-.898-.001-1.796-.11-3.187-.2,6.59-10.244,6.78-20.368,.549-30.563,42.927,.135,85.791,.252,128.653,.433,4.538,.019,8.266-1.357,11.5-4.636,10.927-11.076,21.963-22.045,32.982-33.029,5.17-5.154,6.136-14.804-.369-19.7-2.052-1.544-4.943-2.764-7.459-2.779-30.082-.19-60.167-.091-90.25-.139-17.089-.027-34.178-.153-51.267-.301-7.235-.062-9.65-2.573-9.66-9.921-.052-38.079-.09-76.159-.102-114.238-.003-8.898,.207-17.796,.131-26.693-.043-5.006-1.988-9.146-6.76-11.415-5.448-2.59-10.787-1.926-15.002,2.17-12.112,11.769-24.025,23.748-35.769,35.883-1.646,1.701-2.686,4.74-2.695,7.163-.14,37.868-.068,75.737-.036,113.606,.006,7.369,.223,14.742,.006,22.104-.119,4.045,1.396,6.975,4.177,9.717,11.076,10.922,22.047,21.951,33.047,32.951,6.987,6.986,7.946,16.472,2.793,24.856-4.105,6.68-12.534,5.926-16.462,2.043-17.395-17.195-34.735-34.45-51.794-51.975-1.994-2.048-2.98-5.899-2.998-8.923-.216-36.947-.136-73.896-.195-110.845-.023-14.016-.264-28.032-.283-42.048-.005-3.853,1.213-7.374,4.052-10.209,17.239-17.215,34.453-34.454,51.694-51.666,2.703-2.699,6.057-4.09,9.854-4.123,8.188-.071,16.376-.045,24.564-.001,3.713,.02,7.035,1.317,9.645,3.924,50.829,50.774,101.627,101.578,152.426,152.381,.133,.133,.196,.336,.642,1.126Z"/>
      <path class="cls-3" d="M402.604,59.793c-.135,35.068-.275,69.232-.394,103.397-.044,12.588,.009,25.176-.093,37.763-.018,2.227,.661,3.816,2.253,5.374,6.949,6.797,13.82,13.677,20.626,20.617,1.629,1.661,3.344,2.329,5.67,2.335,47.074,.114,94.147,.296,141.221,.469,.586,.002,1.172,.072,2.122,.134-.613,.817-.964,1.412-1.433,1.89-5.447,5.552-10.895,11.104-16.381,16.618-2.545,2.558-5.578,3.936-9.291,3.922-44.106-.167-88.212-.278-132.318-.494-1.24-.006-2.769-.701-3.665-1.582-8.975-8.824-17.82-17.78-26.765-26.635-2.028-2.008-2.886-4.264-2.883-7.104,.041-44.11,.018-88.219,.08-132.329,.002-1.429,.324-3.274,1.232-4.219,6.354-6.612,12.901-13.038,20.019-20.156Z"/>
      <path class="cls-3" d="M468.974,164.246c.063-25.038,.129-50.782,.194-76.373,25.482,25.482,51.052,51.052,76.436,76.436-25.505-.021-50.979-.042-76.63-.063Z"/>
      <path class="cls-2" d="M536.287,95.971c29.555,29.555,59.072,59.15,88.711,88.621,4.083,4.06,6.869,8.694,7.159,14.288,.512,9.876,.857,19.803-.23,29.663-.545,4.944-3.027,9.122-6.596,12.678-16.727,16.663-33.413,33.367-50.098,50.073-4.146,4.151-9.05,6.257-14.976,6.253-51.305-.031-102.609-.049-153.914,.05-6.855,.013-12.366-2.346-17.144-7.161-15.476-15.596-30.998-31.149-46.621-46.597-5.285-5.226-7.667-11.209-7.743-18.721-.507-50.477-.248-100.954-.361-151.431-.014-6.112,1.956-11.158,6.337-15.504,17.125-16.987,34.188-34.038,51.158-51.18,4.722-4.769,10.332-6.901,16.857-6.964,7.357-.071,14.716-.025,22.074-.02,6.265,.004,11.569,2.049,16.101,6.601,29.706,29.838,59.511,59.578,89.283,89.35Zm-136.93-33.235c-3.256,3.248-6.225,6.867-9.831,9.664-6.663,5.168-8.448,11.537-8.36,19.897,.43,41.08,.194,82.167,.168,123.251-.002,2.716,.301,5.182,2.4,7.26,9.222,9.131,18.374,18.334,27.53,27.532,.837,.84,1.676,1.214,2.919,1.217,44.451,.109,88.902,.263,133.353,.428,1.565,.006,3.002-.439,4.392-1.03,.927-.394,1.92-.859,2.603-1.564,6.311-6.515,12.972-12.692,18.966-19.515,5.055-3.778,9.413-8.337,13.374-13.158,4.773-5.811,3.192-12.967-3.178-17.081,3.458-.588,6.245,.702,8.866,2.873,5.593,4.633,5.473,14.072,.045,19.492-10.993,10.977-22.019,21.921-32.927,32.982-3.211,3.255-6.891,4.729-11.414,4.684-14.918-.148-29.837-.306-44.754-.249-27.97,.106-55.94,.36-83.373,.549,5.15,8.265,5.666,17.544,.67,27.019-1.563,2.964-1.667,2.916,1.76,2.922,45.268,.074,90.537,.136,135.805,.235,4.607,.01,8.406-1.535,11.679-4.827,16.577-16.666,33.2-33.288,49.866-49.865,3.134-3.117,4.695-6.741,4.693-11.109-.003-7.664-.015-15.329,.015-22.993,.018-4.501-1.662-8.255-4.812-11.405-3.83-3.829-7.879-7.468-11.43-11.541-3.879-4.449-8.516-5.857-14.278-5.838-41.797,.139-83.596,.08-125.393,.074-5.501,0-7.544-2.052-7.55-7.532-.018-16.071-.027-32.143-.032-48.214-.004-12.468-.005-24.935,.013-37.403,.003-1.893-.5-4.181,1.798-5.064,2.192-.843,3.824,.676,5.32,2.097,.37,.352,.724,.721,1.085,1.083,28.543,28.542,57.082,57.087,85.642,85.612,.875,.874,1.504,1.973,3.198,1.934,7.966-.183,15.936-.162,23.905-.214,4.021-.026,8.042-.054,12.553-.084-.574-.636-.808-.919-1.066-1.177-50.513-50.505-101.028-101.008-151.547-151.507-2.848-2.847-6.31-4.293-10.344-4.302-7.767-.017-15.534,.013-23.301-.03-4.48-.024-8.209,1.559-11.375,4.734-16.816,16.861-33.638,33.717-50.534,50.498-2.751,2.732-4.102,5.965-4.467,9.651-.189,1.907,.207,3.864,.209,5.799,.046,48.643,.121,97.287,.042,145.93-.009,5.556,1.663,9.828,5.684,13.773,16.339,16.031,32.426,32.317,48.626,48.489,5.239,5.23,13.221,4.446,17.03-1.613,5.216-8.296,4.148-17.751-2.807-24.703-10.986-10.981-21.94-21.993-32.998-32.901-2.767-2.729-4.207-5.65-4.179-9.675,.121-17.209-.039-34.42-.055-51.63-.027-27.899-.007-55.798-.054-83.697-.005-2.903,.771-5.482,2.778-7.503,11.878-11.97,23.72-23.98,35.794-35.751,3.692-3.599,8.456-4.61,13.519-2.738,4.869,1.799,7.671,5.186,7.946,10.479-.967-.105-1.581-.773-2.306-1.33-4.52-3.468-11.031-4.008-14.368-.77-5.982,5.804-11.689,11.89-17.511,17.859Zm69.455,101.611c25.776,.027,51.25,.054,77.174,.081-25.779-25.779-51.384-51.384-76.939-76.939-.079,25.684-.158,51.476-.235,76.858Z"/>
      <path class="cls-6" d="M433.544,46.977c.089,7.094,.249,14.188,.256,21.282,.037,39.866,.033,79.733,.052,119.599,.004,9.075,2.046,11.082,11.091,11.239,32.54,.563,65.084,.208,97.626,.395,13.708,.079,27.416,.098,41.125,.144,6.37,4.114,7.951,11.27,3.178,17.081-3.96,4.821-8.318,9.381-13.374,13.158-.289-.068-.579-.194-.869-.195-17.934-.068-35.869-.107-53.803-.188-29.525-.132-59.05-.304-88.576-.405-2.092-.007-3.64-.65-5.11-2.145-6.951-7.067-13.961-14.078-21.03-21.027-1.414-1.39-2.071-2.795-2.06-4.805,.188-36.044,.298-72.088,.461-108.131,.049-10.754,.512-22.568,.107-33.605-1.089,.903,8.269-8.693,14.251-14.497,3.337-3.238,9.849-2.698,14.368,.77,.726,.557,1.339,1.225,2.306,1.33Z"/>
    </g>
  </g>
</svg>